<?xml version="1.0" encoding="UTF-8" standalone="no"?>
<!DOCTYPE svg PUBLIC "-//W3C//DTD SVG 1.1//EN" "http://www.w3.org/Graphics/SVG/1.1/DTD/svg11.dtd">
<svg width="100%" height="100%" viewBox="0 0 800 800" version="1.1" xmlns="http://www.w3.org/2000/svg"
     xmlns:xlink="http://www.w3.org/1999/xlink" xml:space="preserve" xmlns:serif="http://www.serif.com/"
     style="fill-rule:evenodd;clip-rule:evenodd;stroke-linejoin:round;stroke-miterlimit:2;">
    <path d="M197.533,685.8C226.845,710.355 261.563,727.617 298.833,736.167C302.4,737.333 304.8,732.667 302.4,730.333C222.567,654.167 266.433,571.733 298.833,534.567C321.933,508.033 354.833,464.333 352.433,405.733C352.433,399.867 358.433,395.167 363.167,398.7C408.467,422.133 439.433,473.7 447.767,515.867C460.9,503 465.667,483.067 465.667,465.5C465.667,459.633 472.8,454.933 478.767,459.633C521.667,498.3 595.533,629.533 476.367,732.633C474,735 476.367,739.7 478.767,738.533C514.9,729.061 548.882,712.743 578.867,690.467C773.1,540.467 646.767,274.467 564.533,186.6C553.833,176.033 534.767,183.067 534.767,198.3C533.567,229.967 524.033,265.1 499.033,288.533C479.967,208.867 416.433,118.367 325.867,73.833C313.967,67.967 299.667,77.333 300.867,90.233C303.2,199.233 232.1,268.633 170.133,358.867C115.3,439.7 79.567,588.533 197.533,685.8Z"
          style="fill:rgb(0,128,255);fill-opacity:0.15;fill-rule:nonzero;"/>
</svg>
