<?xml version="1.0" encoding="UTF-8" standalone="no"?>
<!DOCTYPE svg PUBLIC "-//W3C//DTD SVG 1.1//EN" "http://www.w3.org/Graphics/SVG/1.1/DTD/svg11.dtd">
<svg width="100%" height="100%" viewBox="0 0 800 800" version="1.1" xmlns="http://www.w3.org/2000/svg"
     xmlns:xlink="http://www.w3.org/1999/xlink" xml:space="preserve" xmlns:serif="http://www.serif.com/"
     style="fill-rule:evenodd;clip-rule:evenodd;stroke-linejoin:round;stroke-miterlimit:2;">
    <g>
        <g>
            <path d="M795.039,387.988L590.866,183.814C584.517,177.466 573.284,177.466 566.935,183.814L522.67,228.079C516.059,234.691 516.059,245.408 522.67,252.019L670.617,399.949L522.678,547.905C516.067,554.516 516.067,565.233 522.678,571.845L566.943,616.109C570.118,619.284 574.426,621.078 578.913,621.078C583.391,621.078 587.708,619.284 590.883,616.109L795.039,411.944C801.651,405.325 801.651,394.599 795.039,387.988Z"
                  style="fill:rgb(0,128,255);fill-opacity:0.15;fill-rule:nonzero;"/>
            <path d="M277.313,547.905L129.391,399.966L277.339,252.036C280.513,248.861 282.299,244.561 282.299,240.066C282.299,235.579 280.521,231.271 277.339,228.096L233.074,183.831C229.899,180.657 225.59,178.871 221.104,178.871C216.617,178.871 212.308,180.657 209.134,183.831L4.952,387.988C-1.659,394.599 -1.659,405.316 4.952,411.936L209.126,616.101C212.3,619.275 216.609,621.07 221.095,621.07C225.582,621.07 229.891,619.275 233.065,616.101L277.33,571.836C283.941,565.233 283.941,554.516 277.313,547.905Z"
                  style="fill:rgb(0,128,255);fill-opacity:0.15;fill-rule:nonzero;"/>
            <path d="M516.101,115.127C513.951,111.183 510.328,108.254 506.027,106.984L470.143,96.394C461.187,93.736 451.757,98.874 449.115,107.839L282.528,671.988C281.258,676.297 281.749,680.928 283.891,684.864C286.032,688.817 289.664,691.738 293.964,693.016L329.848,703.606C331.448,704.08 333.065,704.309 334.648,704.309C341.954,704.309 348.701,699.534 350.876,692.161L517.464,128.003C518.734,123.694 518.251,119.064 516.101,115.127Z"
                  style="fill:rgb(0,128,255);fill-opacity:0.15;fill-rule:nonzero;"/>
        </g>
    </g>
</svg>
