<?xml version="1.0" encoding="UTF-8" standalone="no"?>
<!DOCTYPE svg PUBLIC "-//W3C//DTD SVG 1.1//EN" "http://www.w3.org/Graphics/SVG/1.1/DTD/svg11.dtd">
<svg width="100%" height="100%" viewBox="0 0 800 800" version="1.1" xmlns="http://www.w3.org/2000/svg"
     xmlns:xlink="http://www.w3.org/1999/xlink" xml:space="preserve" xmlns:serif="http://www.serif.com/"
     style="fill-rule:evenodd;clip-rule:evenodd;stroke-linejoin:round;stroke-miterlimit:2;">
    <path d="M437.491,570.789C522.24,539.522 572.12,486.875 587.129,412.847C623.407,431.055 648,466.777 648,508C648,525.615 643.491,541.943 635.651,556.691L649.159,599.645C652.372,609.931 642.733,618.931 632.451,615.716L590.698,601.002C573.406,610.659 553.319,616 531.807,616C492.857,616 458.471,598.187 437.491,570.789ZM352.787,176C459.462,176 545.574,256.357 546.216,356C546.216,455.643 460.105,536 353.43,536C316.157,536 281.456,526.357 251.895,509C248.682,507.071 244.826,506.429 240.97,507.714L184.42,527.643C174.138,530.857 164.498,521.857 167.711,511.571L185.705,454.357C186.99,451.143 186.348,447.286 184.42,444.071C168.997,417.714 160,388.143 160,356C160,256.357 246.111,176 352.787,176ZM256,296C247.163,296 240,303.163 240,312L240,328C240,336.837 247.163,344 256,344L464,344C472.837,344 480,336.837 480,328L480,312C480,303.163 472.837,296 464,296L256,296ZM256,384C247.163,384 240,391.163 240,400L240,416C240,424.837 247.163,432 256,432L368,432C376.837,432 384,424.837 384,416L384,400C384,391.163 376.837,384 368,384L256,384Z"
          style="fill:rgb(0,128,255);fill-opacity:0.15;fill-rule:nonzero;"/>
</svg>
