<?xml version="1.0" encoding="UTF-8" standalone="no"?>
<!DOCTYPE svg PUBLIC "-//W3C//DTD SVG 1.1//EN" "http://www.w3.org/Graphics/SVG/1.1/DTD/svg11.dtd">
<svg width="100%" height="100%" viewBox="0 0 800 800" version="1.1" xmlns="http://www.w3.org/2000/svg"
     xmlns:xlink="http://www.w3.org/1999/xlink" xml:space="preserve" xmlns:serif="http://www.serif.com/"
     style="fill-rule:evenodd;clip-rule:evenodd;stroke-linejoin:round;stroke-miterlimit:2;">
    <path d="M195.537,642.526C185.625,642.537 175.714,642.34 165.811,641.937L161.179,640.884C136.777,635.197 117.918,615.593 113.179,590.989L112.421,587.116C112.211,582.653 112,570.021 112,559.032L112,186.695C112.046,175.725 121.072,166.718 132.042,166.695L579.789,166.695C590.752,166.718 599.766,175.732 599.789,186.695L599.789,251.074L666.779,251.074C678.403,251.12 687.954,260.671 688,272.295L688,575.116C688,612.073 657.589,642.484 620.632,642.484L195.537,642.526ZM195.537,595.832L556.463,595.832C554.311,589.152 553.217,582.176 553.221,575.158L553.221,483.621C553.14,482.093 553.098,480.562 553.095,479.032L553.095,213.347L158.695,213.347L158.695,559.032C158.695,568.211 158.821,577.137 158.947,581.937L159.032,582.274C160.312,588.733 165.259,593.878 171.663,595.411L172.084,595.495C177.684,595.663 187.158,595.832 195.537,595.832ZM501.474,286.947L208.421,286.947L208.421,333.642L501.474,333.642L501.474,286.947ZM333.053,387.284L208.421,387.284L208.421,536L333.053,536L333.053,387.284ZM501.558,388.379L380.337,388.379L380.337,435.074L501.516,435.074L501.558,388.379ZM501.558,489.853L380.337,489.853L380.337,536.505L501.516,536.505L501.558,489.853ZM599.916,297.726L599.916,575.158C599.916,586.522 609.267,595.874 620.632,595.874C631.996,595.874 641.347,586.522 641.347,575.158L641.347,297.684L599.916,297.726Z"
          style="fill:rgb(0,128,255);fill-opacity:0.15;fill-rule:nonzero;"/>
</svg>
