<?xml version="1.0" encoding="UTF-8" standalone="no"?>
<!DOCTYPE svg PUBLIC "-//W3C//DTD SVG 1.1//EN" "http://www.w3.org/Graphics/SVG/1.1/DTD/svg11.dtd">
<svg width="100%" height="100%" viewBox="0 0 800 800" version="1.1" xmlns="http://www.w3.org/2000/svg"
     xmlns:xlink="http://www.w3.org/1999/xlink" xml:space="preserve" xmlns:serif="http://www.serif.com/"
     style="fill-rule:evenodd;clip-rule:evenodd;stroke-linejoin:round;stroke-miterlimit:2;">
    <path d="M195.2,332.8C176.533,332.8 160.667,339.333 147.6,352.4C134.533,365.467 128,381.333 128,400C128,418.667 134.533,434.533 147.6,447.6C160.667,460.667 176.533,467.2 195.2,467.2C213.867,467.2 229.733,460.667 242.8,447.6C255.867,434.533 262.4,418.667 262.4,400C262.4,381.333 255.867,365.467 242.8,352.4C229.733,339.333 213.867,332.8 195.2,332.8ZM400,332.8C381.333,332.8 365.467,339.333 352.4,352.4C339.333,365.467 332.8,381.333 332.8,400C332.8,418.667 339.333,434.533 352.4,447.6C365.467,460.667 381.2,467.2 399.6,467.2C418,467.2 433.867,460.667 447.2,447.6C460.533,434.533 467.2,418.667 467.2,400C467.2,381.333 460.533,365.467 447.2,352.4C433.867,339.333 417.867,332.8 399.2,332.8L400,332.8ZM604.8,332.8C586.133,332.8 570.267,339.333 557.2,352.4C544.133,365.467 537.6,381.333 537.6,400C537.6,418.667 544.133,434.533 557.2,447.6C570.267,460.667 586.133,467.2 604.8,467.2C623.467,467.2 639.333,460.667 652.4,447.6C665.467,434.533 672,418.667 672,400C672,381.333 665.467,365.467 652.4,352.4C639.333,339.333 623.467,332.8 604.8,332.8Z"
          style="fill:rgb(0,128,255);fill-opacity:0.15;fill-rule:nonzero;"/>
</svg>
