<?xml version="1.0" encoding="UTF-8" standalone="no"?>
<!DOCTYPE svg PUBLIC "-//W3C//DTD SVG 1.1//EN" "http://www.w3.org/Graphics/SVG/1.1/DTD/svg11.dtd">
<svg width="100%" height="100%" viewBox="0 0 800 800" version="1.1" xmlns="http://www.w3.org/2000/svg"
     xmlns:xlink="http://www.w3.org/1999/xlink" xml:space="preserve" xmlns:serif="http://www.serif.com/"
     style="fill-rule:evenodd;clip-rule:evenodd;stroke-linejoin:round;stroke-miterlimit:2;">
    <path d="M57.701,530.069C52.645,526.24 53.371,519.888 53.371,519.888L81.381,186.667C81.381,186.667 81.819,182.997 83.451,181.12C84.48,179.947 85.781,178.24 88.235,177.237C116.405,165.717 269.531,82.768 346.667,160C359.451,174.811 373.328,196.672 373.328,213.333L373.328,495.355C373.328,495.355 373.659,501.339 368.245,504.96C366.971,505.813 361.632,508.245 355.339,505.099C236.656,445.717 104.085,513.344 70.64,531.077C63.931,534.635 58.699,530.832 57.701,530.069ZM729.355,531.077C695.909,513.344 563.339,445.717 444.656,505.099C438.363,508.245 433.024,505.813 431.749,504.96C426.341,501.339 426.672,495.355 426.672,495.355L426.672,213.333C426.672,196.672 440.549,174.811 453.333,160C530.469,82.768 682.619,165.712 710.789,177.237C713.243,178.24 714.544,179.947 715.573,181.12C717.205,182.997 717.643,186.667 717.643,186.667L746.629,519.888C746.629,519.888 747.355,526.24 742.299,530.069C741.301,530.832 736.069,534.635 729.355,531.077ZM472.784,676.603C474.661,676.149 477.925,674.24 479.072,672.469C480.331,670.528 481.088,669.179 481.328,666.667C483.968,616.645 567.968,570.032 729.205,665.077C733.339,667.429 738.091,667.189 742.139,664.251C746.741,660.907 746.667,655.248 746.667,655.248L746.667,625.691C746.667,625.691 746.683,621.616 745.216,619.376C744.123,617.712 742.677,615.947 740.277,614.8C632.256,544.693 495.701,513.616 426.389,606.309C425.424,608.565 424.507,609.579 422.507,611.136C419.488,613.483 415.808,613.333 415.808,613.333L384.581,613.333C384.581,613.333 380.901,613.483 377.883,611.136C375.883,609.579 374.965,608.565 374,606.309C304.688,513.616 168.133,543.227 60.112,613.333C57.712,614.48 56.267,616.245 55.173,617.909C53.707,620.149 53.723,624.224 53.723,624.224L53.723,653.781C53.723,653.781 53.648,659.44 58.251,662.784C62.299,665.723 67.051,665.963 71.184,663.611C232.421,568.565 316.421,616.645 319.061,666.667C319.301,669.179 320.059,670.528 321.317,672.469C322.464,674.24 325.728,676.149 327.605,676.603C366.107,686.165 421.931,689.936 472.784,676.603Z"
          style="fill:rgb(0,128,255);fill-opacity:0.15;fill-rule:nonzero;"/>
</svg>
