<?xml version="1.0" encoding="UTF-8" standalone="no"?>
<!DOCTYPE svg PUBLIC "-//W3C//DTD SVG 1.1//EN" "http://www.w3.org/Graphics/SVG/1.1/DTD/svg11.dtd">
<svg width="100%" height="100%" viewBox="0 0 800 800" version="1.1" xmlns="http://www.w3.org/2000/svg"
     xmlns:xlink="http://www.w3.org/1999/xlink" xml:space="preserve" xmlns:serif="http://www.serif.com/"
     style="fill-rule:evenodd;clip-rule:evenodd;stroke-linecap:round;stroke-linejoin:round;">
    <path d="M300,400L366.667,466.667L500,333.333M666.667,400C666.667,548.703 484.667,656.457 421.38,689.433C414.537,693 411.113,694.783 406.367,695.707C402.667,696.427 397.333,696.427 393.633,695.707C388.887,694.783 385.463,693 378.62,689.433C315.332,656.457 133.333,548.703 133.333,400L133.333,273.92C133.333,247.269 133.333,233.944 137.692,222.49C141.542,212.371 147.799,203.342 155.922,196.184C165.117,188.081 177.593,183.402 202.547,174.045L381.273,107.022C388.203,104.424 391.667,103.124 395.233,102.609C398.393,102.152 401.607,102.152 404.767,102.609C408.333,103.124 411.797,104.424 418.727,107.022L597.453,174.045C622.407,183.402 634.883,188.081 644.077,196.184C652.2,203.342 658.457,212.371 662.307,222.49C666.667,233.944 666.667,247.269 666.667,273.92L666.667,400Z"
          style="fill:none;fill-rule:nonzero;stroke:rgb(0,128,255);stroke-opacity:0.15;stroke-width:66.67px;"/>
</svg>
