<?xml version="1.0" encoding="UTF-8" standalone="no"?>
<!DOCTYPE svg PUBLIC "-//W3C//DTD SVG 1.1//EN" "http://www.w3.org/Graphics/SVG/1.1/DTD/svg11.dtd">
<svg width="100%" height="100%" viewBox="0 0 800 800" version="1.1" xmlns="http://www.w3.org/2000/svg"
     xmlns:xlink="http://www.w3.org/1999/xlink" xml:space="preserve" xmlns:serif="http://www.serif.com/"
     style="fill-rule:evenodd;clip-rule:evenodd;stroke-linejoin:round;stroke-miterlimit:2;">
    <path d="M66.667,33.333C48.257,33.333 33.333,48.257 33.333,66.667C33.333,85.076 48.257,100 66.667,100L107.307,100L226.115,575.23C191.092,590.787 166.667,625.873 166.667,666.667C166.667,721.897 211.438,766.667 266.667,766.667C321.895,766.667 366.667,721.897 366.667,666.667C366.667,654.98 364.66,643.76 360.977,633.333L505.69,633.333C502.007,643.76 500,654.98 500,666.667C500,721.897 544.77,766.667 600,766.667C655.23,766.667 700,721.897 700,666.667C700,611.437 655.23,566.667 600,566.667L292.693,566.667L276.026,500L600,500C668.807,500 710.063,456.53 732.957,408.53C755.33,361.623 763.117,305.564 765.833,264.789C769.613,208.005 722.677,166.667 670.703,166.667L192.693,166.667L171.984,83.831C164.564,54.153 137.899,33.333 107.307,33.333L66.667,33.333ZM600,433.333L259.359,433.333L209.359,233.333L670.703,233.333C689.14,233.333 700.21,246.892 699.313,260.359C696.78,298.407 689.687,344.393 672.787,379.83C656.407,414.17 634.003,433.333 600,433.333ZM600,699.793C581.703,699.793 566.873,684.963 566.873,666.667C566.873,648.37 581.703,633.54 600,633.54C618.297,633.54 633.127,648.37 633.127,666.667C633.127,684.963 618.297,699.793 600,699.793ZM233.539,666.667C233.539,684.963 248.371,699.793 266.667,699.793C284.963,699.793 299.794,684.963 299.794,666.667C299.794,648.37 284.963,633.54 266.667,633.54C248.371,633.54 233.539,648.37 233.539,666.667Z"
          style="fill:rgb(0,128,255);fill-opacity:0.15;"/>
</svg>
