<?xml version="1.0" encoding="UTF-8" standalone="no"?>
<!DOCTYPE svg PUBLIC "-//W3C//DTD SVG 1.1//EN" "http://www.w3.org/Graphics/SVG/1.1/DTD/svg11.dtd">
<svg width="100%" height="100%" viewBox="0 0 800 800" version="1.1" xmlns="http://www.w3.org/2000/svg"
     xmlns:xlink="http://www.w3.org/1999/xlink" xml:space="preserve" xmlns:serif="http://www.serif.com/"
     style="fill-rule:evenodd;clip-rule:evenodd;stroke-linejoin:round;stroke-miterlimit:2;">
    <path d="M626.611,223.326L530.358,319.579L530.611,320.421L603.705,589.474C606.241,601.387 602.936,613.822 594.821,622.905L570.695,647.032C567.984,650.196 564.02,652.021 559.853,652.021C554.27,652.021 549.177,648.745 546.863,643.663L448,464.716L416.632,433.305L333.684,516.253C324.177,524.736 313.552,531.876 302.105,537.474L320.632,598.4C323.483,610.18 320.344,622.639 312.253,631.663L304.884,639.074C297.105,646.794 284.369,646.794 276.589,639.074L232.8,595.326L232.042,594.484L198.863,561.389L198.021,560.547L154.316,516.8C146.596,509.021 146.596,496.285 154.316,488.505L161.726,481.095C170.766,473.033 183.223,469.926 194.989,472.8L255.916,491.242C261.518,479.798 268.658,469.174 277.137,459.663L360.084,376.716L328.674,345.389L149.726,246.526C144.645,244.212 141.369,239.12 141.369,233.536C141.369,229.37 143.193,225.405 146.358,222.695L170.484,198.568C179.571,190.459 192.002,187.155 203.916,189.684L472.968,262.779L473.811,263.032L570.063,166.779C585.642,151.116 638.316,123.832 653.979,139.411C669.558,155.074 642.232,207.705 626.611,223.326Z"
          style="fill:rgb(0,128,255);fill-opacity:0.15;fill-rule:nonzero;"/>
</svg>
