<?xml version="1.0" encoding="UTF-8" standalone="no"?>
<svg
   xmlns:dc="http://purl.org/dc/elements/1.1/"
   xmlns:cc="http://creativecommons.org/ns#"
   xmlns:rdf="http://www.w3.org/1999/02/22-rdf-syntax-ns#"
   xmlns:svg="http://www.w3.org/2000/svg"
   xmlns="http://www.w3.org/2000/svg"
   xmlns:sodipodi="http://sodipodi.sourceforge.net/DTD/sodipodi-0.dtd"
   xmlns:inkscape="http://www.inkscape.org/namespaces/inkscape"
   version="1.1"
   id="svg14"
   inkscape:version="1.0.2-2 (e86c870879, 2021-01-15)"
   sodipodi:docname="icon2.svg"
   x="0px"
   y="0px"
   viewBox="0 0 36 36"
   style="enable-background:new 0 0 36 36;"
   xml:space="preserve"><metadata
   id="metadata13"><rdf:RDF><cc:Work
       rdf:about=""><dc:format>image/svg+xml</dc:format><dc:type
         rdf:resource="http://purl.org/dc/dcmitype/StillImage" /></cc:Work></rdf:RDF></metadata><defs
   id="defs11" /><sodipodi:namedview
   pagecolor="#ffffff"
   bordercolor="#666666"
   borderopacity="1"
   objecttolerance="10"
   gridtolerance="10"
   guidetolerance="10"
   inkscape:pageopacity="0"
   inkscape:pageshadow="2"
   inkscape:window-width="1920"
   inkscape:window-height="1002"
   id="namedview9"
   showgrid="false"
   inkscape:zoom="23.333333"
   inkscape:cx="18"
   inkscape:cy="18"
   inkscape:window-x="-8"
   inkscape:window-y="-8"
   inkscape:window-maximized="1"
   inkscape:current-layer="svg14" />
<style
   type="text/css"
   id="style2">
	.st0{enable-background:new    ;}
	.st1{fill:#0080FF;}
</style>
<g
   class="st0"
   id="g6"
   style="fill:#0080ff;fill-opacity:0.33333334">
	<path
   class="st1"
   d="m 30.4,8.5 c 0,-2.4 -1.1,-3.6 -3.4,-3.6 -1,0 -1.8,0.3 -2.5,0.9 -0.7,0.6 -1.3,1.4 -1.6,2.3 -0.4,0.9 -0.8,2.1 -1.1,3.4 -0.3,1.3 -0.7,2.6 -1,4 -0.7,3.2 -1.7,5.9 -3.1,8.1 0.4,0.2 1,0.5 1.8,0.9 0.8,0.4 1.5,0.7 2,0.9 1.4,0.6 2.6,0.9 3.7,0.9 0.5,0 0.9,-0.1 1.3,-0.3 0.4,-0.2 0.7,-0.5 0.9,-0.8 0.2,-0.3 0.4,-0.5 0.6,-0.8 0.2,-0.3 0.3,-0.3 0.3,-0.3 l 0.7,0.4 c -1,1.8 -2,3 -3.1,3.4 -0.5,0.2 -1.1,0.3 -1.9,0.3 -0.8,0 -1.6,-0.1 -2.5,-0.4 -0.9,-0.3 -1.9,-0.7 -3.1,-1.2 -1.2,-0.5 -1.9,-0.8 -2.4,-1 -0.9,0.8 -2,1.4 -3.4,1.9 -1.4,0.5 -3,0.7 -4.7,0.7 C 7,28.2 6.2,28 5.5,27.7 4.1,27.1 3.4,26.2 3.4,25.3 c 0,-0.9 0.3,-1.8 0.9,-2.5 1.2,-1.3 2.8,-1.9 4.8,-1.9 1.5,0 3,0.3 4.7,0.9 0.6,0.2 1.4,0.6 2.3,1 0.5,-1.3 0.9,-2.8 1.2,-4.5 0.3,-1.7 0.6,-3.1 0.9,-4.3 0.3,-1.1 0.6,-2.2 0.9,-3.1 0.3,-0.9 0.7,-1.9 1.2,-2.8 0.5,-0.9 1,-1.7 1.6,-2.3 1.3,-1.4 3,-2.1 5.1,-2.1 1.6,0 2.9,0.5 3.9,1.4 1,0.9 1.5,2.2 1.5,3.9 0,1.3 -0.3,2.5 -0.8,3.6 -0.5,1.2 -1.2,2.2 -2,3.1 -0.8,0.9 -1.5,1.7 -2.6,2.3 -1.1,0.6 -2.2,1 -3.4,1.2 l -0.2,-0.9 c 1.3,-0.3 2.6,-1 3.7,-2 1.1,-1 1.9,-2.2 2.5,-3.6 0.5,-1.4 0.8,-2.8 0.8,-4.2 z m -26,16.6 c 0,0.9 0.5,1.5 1.6,1.8 2.2,0.6 4.5,0.4 6.7,-0.6 0.8,-0.4 1.5,-0.9 1.9,-1.4 -2.2,-1.5 -4.2,-2.2 -6,-2.2 -2.7,-0.2 -4.2,0.7 -4.2,2.4 z"
   id="path4"
   style="fill:#0080ff;fill-opacity:0.33333334" />
</g>
</svg>
