<?xml version="1.0" encoding="UTF-8" standalone="no"?>
<!DOCTYPE svg PUBLIC "-//W3C//DTD SVG 1.1//EN" "http://www.w3.org/Graphics/SVG/1.1/DTD/svg11.dtd">
<svg width="100%" height="100%" viewBox="0 0 36 36" version="1.1" xmlns="http://www.w3.org/2000/svg" xmlns:xlink="http://www.w3.org/1999/xlink" xml:space="preserve" xmlns:serif="http://www.serif.com/" style="fill-rule:evenodd;clip-rule:evenodd;">
    <g id="g6">
        <path id="path4" d="M30.4,8.5C30.4,6.1 29.3,4.9 27,4.9C26,4.9 25.2,5.2 24.5,5.8C23.8,6.4 23.2,7.2 22.9,8.1C22.5,9 22.1,10.2 21.8,11.5C21.5,12.8 21.1,14.1 20.8,15.5C20.1,18.7 19.1,21.4 17.7,23.6C18.1,23.8 18.7,24.1 19.5,24.5C20.3,24.9 21,25.2 21.5,25.4C22.9,26 24.1,26.3 25.2,26.3C25.7,26.3 26.1,26.2 26.5,26C26.9,25.8 27.2,25.5 27.4,25.2C27.6,24.9 27.8,24.7 28,24.4C28.2,24.1 28.3,24.1 28.3,24.1L29,24.5C28,26.3 27,27.5 25.9,27.9C25.4,28.1 24.8,28.2 24,28.2C23.2,28.2 22.4,28.1 21.5,27.8C20.6,27.5 19.6,27.1 18.4,26.6C17.2,26.1 16.5,25.8 16,25.6C15.1,26.4 14,27 12.6,27.5C11.2,28 9.6,28.2 7.9,28.2C7,28.2 6.2,28 5.5,27.7C4.1,27.1 3.4,26.2 3.4,25.3C3.4,24.4 3.7,23.5 4.3,22.8C5.5,21.5 7.1,20.9 9.1,20.9C10.6,20.9 12.1,21.2 13.8,21.8C14.4,22 15.2,22.4 16.1,22.8C16.6,21.5 17,20 17.3,18.3C17.6,16.6 17.9,15.2 18.2,14C18.5,12.9 18.8,11.8 19.1,10.9C19.4,10 19.8,9 20.3,8.1C20.8,7.2 21.3,6.4 21.9,5.8C23.2,4.4 24.9,3.7 27,3.7C28.6,3.7 29.9,4.2 30.9,5.1C31.9,6 32.4,7.3 32.4,9C32.4,10.3 32.1,11.5 31.6,12.6C31.1,13.8 30.4,14.8 29.6,15.7C28.8,16.6 28.1,17.4 27,18C25.9,18.6 24.8,19 23.6,19.2L23.4,18.3C24.7,18 26,17.3 27.1,16.3C28.2,15.3 29,14.1 29.6,12.7C30.1,11.3 30.4,9.9 30.4,8.5ZM4.4,25.1C4.4,26 4.9,26.6 6,26.9C8.2,27.5 10.5,27.3 12.7,26.3C13.5,25.9 14.2,25.4 14.6,24.9C12.4,23.4 10.4,22.7 8.6,22.7C5.9,22.5 4.4,23.4 4.4,25.1Z" style="fill:none;fill-rule:nonzero;stroke:white;stroke-width:4px;"/>
        <path id="path41" serif:id="path4" d="M30.4,8.5C30.4,6.1 29.3,4.9 27,4.9C26,4.9 25.2,5.2 24.5,5.8C23.8,6.4 23.2,7.2 22.9,8.1C22.5,9 22.1,10.2 21.8,11.5C21.5,12.8 21.1,14.1 20.8,15.5C20.1,18.7 19.1,21.4 17.7,23.6C18.1,23.8 18.7,24.1 19.5,24.5C20.3,24.9 21,25.2 21.5,25.4C22.9,26 24.1,26.3 25.2,26.3C25.7,26.3 26.1,26.2 26.5,26C26.9,25.8 27.2,25.5 27.4,25.2C27.6,24.9 27.8,24.7 28,24.4C28.2,24.1 28.3,24.1 28.3,24.1L29,24.5C28,26.3 27,27.5 25.9,27.9C25.4,28.1 24.8,28.2 24,28.2C23.2,28.2 22.4,28.1 21.5,27.8C20.6,27.5 19.6,27.1 18.4,26.6C17.2,26.1 16.5,25.8 16,25.6C15.1,26.4 14,27 12.6,27.5C11.2,28 9.6,28.2 7.9,28.2C7,28.2 6.2,28 5.5,27.7C4.1,27.1 3.4,26.2 3.4,25.3C3.4,24.4 3.7,23.5 4.3,22.8C5.5,21.5 7.1,20.9 9.1,20.9C10.6,20.9 12.1,21.2 13.8,21.8C14.4,22 15.2,22.4 16.1,22.8C16.6,21.5 17,20 17.3,18.3C17.6,16.6 17.9,15.2 18.2,14C18.5,12.9 18.8,11.8 19.1,10.9C19.4,10 19.8,9 20.3,8.1C20.8,7.2 21.3,6.4 21.9,5.8C23.2,4.4 24.9,3.7 27,3.7C28.6,3.7 29.9,4.2 30.9,5.1C31.9,6 32.4,7.3 32.4,9C32.4,10.3 32.1,11.5 31.6,12.6C31.1,13.8 30.4,14.8 29.6,15.7C28.8,16.6 28.1,17.4 27,18C25.9,18.6 24.8,19 23.6,19.2L23.4,18.3C24.7,18 26,17.3 27.1,16.3C28.2,15.3 29,14.1 29.6,12.7C30.1,11.3 30.4,9.9 30.4,8.5ZM4.4,25.1C4.4,26 4.9,26.6 6,26.9C8.2,27.5 10.5,27.3 12.7,26.3C13.5,25.9 14.2,25.4 14.6,24.9C12.4,23.4 10.4,22.7 8.6,22.7C5.9,22.5 4.4,23.4 4.4,25.1Z" style="fill:rgb(0,128,255);fill-rule:nonzero;"/>
        <path id="path42" serif:id="path4" d="M30.4,8.5C30.4,6.1 29.3,4.9 27,4.9C26,4.9 25.2,5.2 24.5,5.8C23.8,6.4 23.2,7.2 22.9,8.1C22.5,9 22.1,10.2 21.8,11.5C21.5,12.8 21.1,14.1 20.8,15.5C20.1,18.7 19.1,21.4 17.7,23.6C18.1,23.8 18.7,24.1 19.5,24.5C20.3,24.9 21,25.2 21.5,25.4C22.9,26 24.1,26.3 25.2,26.3C25.7,26.3 26.1,26.2 26.5,26C26.9,25.8 27.2,25.5 27.4,25.2C27.6,24.9 27.8,24.7 28,24.4C28.2,24.1 28.3,24.1 28.3,24.1L29,24.5C28,26.3 27,27.5 25.9,27.9C25.4,28.1 24.8,28.2 24,28.2C23.2,28.2 22.4,28.1 21.5,27.8C20.6,27.5 19.6,27.1 18.4,26.6C17.2,26.1 16.5,25.8 16,25.6C15.1,26.4 14,27 12.6,27.5C11.2,28 9.6,28.2 7.9,28.2C7,28.2 6.2,28 5.5,27.7C4.1,27.1 3.4,26.2 3.4,25.3C3.4,24.4 3.7,23.5 4.3,22.8C5.5,21.5 7.1,20.9 9.1,20.9C10.6,20.9 12.1,21.2 13.8,21.8C14.4,22 15.2,22.4 16.1,22.8C16.6,21.5 17,20 17.3,18.3C17.6,16.6 17.9,15.2 18.2,14C18.5,12.9 18.8,11.8 19.1,10.9C19.4,10 19.8,9 20.3,8.1C20.8,7.2 21.3,6.4 21.9,5.8C23.2,4.4 24.9,3.7 27,3.7C28.6,3.7 29.9,4.2 30.9,5.1C31.9,6 32.4,7.3 32.4,9C32.4,10.3 32.1,11.5 31.6,12.6C31.1,13.8 30.4,14.8 29.6,15.7C28.8,16.6 28.1,17.4 27,18C25.9,18.6 24.8,19 23.6,19.2L23.4,18.3C24.7,18 26,17.3 27.1,16.3C28.2,15.3 29,14.1 29.6,12.7C30.1,11.3 30.4,9.9 30.4,8.5ZM4.4,25.1C4.4,26 4.9,26.6 6,26.9C8.2,27.5 10.5,27.3 12.7,26.3C13.5,25.9 14.2,25.4 14.6,24.9C12.4,23.4 10.4,22.7 8.6,22.7C5.9,22.5 4.4,23.4 4.4,25.1Z" style="fill:none;fill-rule:nonzero;stroke:rgb(0,128,255);stroke-width:2px;"/>
        <g transform="matrix(1,0,0,1,-0.0964982,-2.00095)">
            <path d="M1.973,36C1.976,36 34.218,36 34.22,36" style="fill:none;stroke:rgb(0,128,255);stroke-width:4px;stroke-linecap:square;stroke-linejoin:round;stroke-miterlimit:1.5;"/>
        </g>
    </g>
</svg>
