<?xml version="1.0" encoding="utf-8"?>
<!-- Generator: Adobe Illustrator 24.3.0, SVG Export Plug-In . SVG Version: 6.00 Build 0)  -->
<svg version="1.1"
	 id="svg14" inkscape:version="1.0 (4035a4fb49, 2020-05-01)" sodipodi:docname="icon-dark.svg" xmlns:cc="http://creativecommons.org/ns#" xmlns:dc="http://purl.org/dc/elements/1.1/" xmlns:inkscape="http://www.inkscape.org/namespaces/inkscape" xmlns:rdf="http://www.w3.org/1999/02/22-rdf-syntax-ns#" xmlns:sodipodi="http://sodipodi.sourceforge.net/DTD/sodipodi-0.dtd" xmlns:svg="http://www.w3.org/2000/svg"
	 xmlns="http://www.w3.org/2000/svg" xmlns:xlink="http://www.w3.org/1999/xlink" x="0px" y="0px" viewBox="0 0 36 36"
	 style="enable-background:new 0 0 36 36;" xml:space="preserve">
<style type="text/css">
	.st0{enable-background:new    ;}
	.st1{fill:#0080FF;}
</style>
<g class="st0">
	<path class="st1" d="M30.4,8.5c0-2.4-1.1-3.6-3.4-3.6c-1,0-1.8,0.3-2.5,0.9c-0.7,0.6-1.3,1.4-1.6,2.3c-0.4,0.9-0.8,2.1-1.1,3.4
		s-0.7,2.6-1,4c-0.7,3.2-1.7,5.9-3.1,8.1c0.4,0.2,1,0.5,1.8,0.9c0.8,0.4,1.5,0.7,2,0.9c1.4,0.6,2.6,0.9,3.7,0.9
		c0.5,0,0.9-0.1,1.3-0.3c0.4-0.2,0.7-0.5,0.9-0.8c0.2-0.3,0.4-0.5,0.6-0.8s0.3-0.3,0.3-0.3l0.7,0.4c-1,1.8-2,3-3.1,3.4
		c-0.5,0.2-1.1,0.3-1.9,0.3s-1.6-0.1-2.5-0.4c-0.9-0.3-1.9-0.7-3.1-1.2s-1.9-0.8-2.4-1c-0.9,0.8-2,1.4-3.4,1.9
		c-1.4,0.5-3,0.7-4.7,0.7c-0.9,0-1.7-0.2-2.4-0.5c-1.4-0.6-2.1-1.5-2.1-2.4s0.3-1.8,0.9-2.5c1.2-1.3,2.8-1.9,4.8-1.9
		c1.5,0,3,0.3,4.7,0.9c0.6,0.2,1.4,0.6,2.3,1c0.5-1.3,0.9-2.8,1.2-4.5s0.6-3.1,0.9-4.3c0.3-1.1,0.6-2.2,0.9-3.1
		c0.3-0.9,0.7-1.9,1.2-2.8s1-1.7,1.6-2.3c1.3-1.4,3-2.1,5.1-2.1c1.6,0,2.9,0.5,3.9,1.4s1.5,2.2,1.5,3.9c0,1.3-0.3,2.5-0.8,3.6
		c-0.5,1.2-1.2,2.2-2,3.1S28.1,17.4,27,18s-2.2,1-3.4,1.2l-0.2-0.9c1.3-0.3,2.6-1,3.7-2c1.1-1,1.9-2.2,2.5-3.6
		C30.1,11.3,30.4,9.9,30.4,8.5z M4.4,25.1c0,0.9,0.5,1.5,1.6,1.8c2.2,0.6,4.5,0.4,6.7-0.6c0.8-0.4,1.5-0.9,1.9-1.4
		c-2.2-1.5-4.2-2.2-6-2.2C5.9,22.5,4.4,23.4,4.4,25.1z"/>
</g>
</svg>
