<?xml version="1.0" encoding="UTF-8" standalone="no"?>
<!DOCTYPE svg PUBLIC "-//W3C//DTD SVG 1.1//EN" "http://www.w3.org/Graphics/SVG/1.1/DTD/svg11.dtd">
<svg width="100%" height="100%" viewBox="0 0 800 800" version="1.1" xmlns="http://www.w3.org/2000/svg"
     xmlns:xlink="http://www.w3.org/1999/xlink" xml:space="preserve" xmlns:serif="http://www.serif.com/"
     style="fill-rule:evenodd;clip-rule:evenodd;stroke-linejoin:round;stroke-miterlimit:2;">
    <path d="M217.064,147.686C227.547,138.7 243.33,139.914 252.315,150.397L452.317,383.73C460.34,393.093 460.34,406.907 452.317,416.27L252.315,649.603C243.33,660.087 227.547,661.3 217.064,652.317C206.581,643.33 205.367,627.547 214.352,617.063L400.407,400L214.352,182.937C205.367,172.454 206.581,156.671 217.064,147.686ZM350.403,147.689C360.887,138.704 376.67,139.918 385.657,150.401L585.657,383.733C593.68,393.097 593.68,406.91 585.657,416.273L385.657,649.607C376.67,660.09 360.887,661.303 350.403,652.32C339.92,643.333 338.707,627.55 347.693,617.067L533.747,400.003L347.693,182.94C338.707,172.457 339.92,156.675 350.403,147.689Z"
          style="fill:rgb(0,128,255);"/>
</svg>
