<?xml version="1.0" encoding="UTF-8" standalone="no"?>
<!DOCTYPE svg PUBLIC "-//W3C//DTD SVG 1.1//EN" "http://www.w3.org/Graphics/SVG/1.1/DTD/svg11.dtd">
<svg width="100%" height="100%" viewBox="0 0 800 800" version="1.1" xmlns="http://www.w3.org/2000/svg" xmlns:xlink="http://www.w3.org/1999/xlink" xml:space="preserve" xmlns:serif="http://www.serif.com/" style="fill-rule:evenodd;clip-rule:evenodd;stroke-linecap:round;stroke-linejoin:round;">
    <path d="M300,433.333L400,533.333M400,533.333L500,433.333M400,533.333L400,266.667M240,666.667L560,666.667C597.337,666.667 616.007,666.667 630.267,659.4C642.81,653.01 653.01,642.81 659.4,630.267C666.667,616.007 666.667,597.337 666.667,560L666.667,240C666.667,202.663 666.667,183.995 659.4,169.734C653.01,157.19 642.81,146.991 630.267,140.6C616.007,133.333 597.337,133.333 560,133.333L240,133.333C202.663,133.333 183.995,133.333 169.734,140.6C157.19,146.991 146.991,157.19 140.6,169.734C133.333,183.995 133.333,202.663 133.333,240L133.333,560C133.333,597.337 133.333,616.007 140.6,630.267C146.991,642.81 157.19,653.01 169.734,659.4C183.995,666.667 202.663,666.667 240,666.667Z" style="fill:none;fill-rule:nonzero;stroke:white;stroke-width:66.67px;"/>
</svg>
