<?xml version="1.0" encoding="UTF-8" standalone="no"?>
<!DOCTYPE svg PUBLIC "-//W3C//DTD SVG 1.1//EN" "http://www.w3.org/Graphics/SVG/1.1/DTD/svg11.dtd">
<svg width="100%" height="100%" viewBox="0 0 800 800" version="1.1" xmlns="http://www.w3.org/2000/svg"
     xmlns:xlink="http://www.w3.org/1999/xlink" xml:space="preserve" xmlns:serif="http://www.serif.com/"
     style="fill-rule:evenodd;clip-rule:evenodd;stroke-linejoin:round;stroke-miterlimit:2;">
    <path d="M582.933,147.686C593.417,156.671 594.63,172.454 585.643,182.937L399.59,400L585.643,617.063C594.63,627.547 593.417,643.33 582.933,652.317C572.45,661.3 556.667,660.087 547.683,649.603L347.683,416.27C339.657,406.907 339.657,393.093 347.683,383.73L547.683,150.397C556.667,139.914 572.45,138.7 582.933,147.686ZM449.603,147.689C460.087,156.675 461.3,172.457 452.313,182.94L266.26,400.003L452.313,617.067C461.3,627.55 460.087,643.333 449.603,652.32C439.12,661.303 423.337,660.09 414.353,649.607L214.352,416.273C206.327,406.91 206.327,393.097 214.352,383.733L414.353,150.401C423.337,139.918 439.12,138.704 449.603,147.689Z"
          style="fill:rgb(0,128,255);"/>
</svg>
